<svg width="109" height="99" viewBox="0 0 109 99" fill="none" xmlns="http://www.w3.org/2000/svg">
<path d="M108.223 27.1972L102.525 8.91C101.331 4.02618 97.0984 0.661766 92.1603 0.661766H16.7866C11.9028 0.661766 7.61587 4.08044 6.47631 8.91L0.778516 27.1972C-1.71766 37.8874 5.39102 44.0735 5.66234 44.3991V87.4853C5.66234 93.4544 10.5462 98.3382 16.5153 98.3382H92.4859C98.455 98.3382 103.339 93.4544 103.339 87.4853V44.3991C109.416 38.3215 109.254 31.3213 108.223 27.1972ZM59.927 11.5147H70.5629L73.4932 30.6159C73.9816 34.4687 71.3769 38.6471 66.5473 38.6471C62.9116 38.6471 59.927 35.4454 59.927 31.5384V11.5147ZM24.3294 32.4609C23.8953 35.9881 21.0735 38.6471 17.7634 38.6471C12.7168 38.6471 10.4376 33.3834 11.3059 29.7476L16.7866 11.5147H27.4768L24.3294 32.4609ZM49.0741 31.5384C49.0741 35.4454 46.0895 38.6471 42.074 38.6471C38.0041 38.6471 35.0195 34.8485 35.4537 30.6159L38.4382 11.5147H49.0741V31.5384ZM91.2378 38.6471C87.9276 38.6471 85.0516 35.9881 84.6718 32.4609L81.5244 11.5147L91.9975 11.4604L97.6953 29.7476C98.5635 33.3834 96.3387 38.6471 91.2378 38.6471Z" fill="#176B87"/>
</svg>
